# xmcd
#
# Track frame offsets:
#	150
#	12257
#	31367
#	42882
#	61600
#	73757
#	85842
#	96732
#	110872
#	126105
#	141050
#	155597
#	166927
#	181540
#	196375
#	211622
#	232142
#	243045
#
# Disc length: 3446 seconds
#
# Revision: 3
# Processed by: cddbd v1.5.2PL0 Copyright (c) Steve Scherf et al.
# Submitted via: EZCDAudioConverter 2.1.7.1
#
DISCID=f00d7412
DTITLE=V/A - Acid Drops, Spacedust and Flying Saucers 2/4
DYEAR=2001
DGENRE=
TTITLE0=Kaleidoscope - Flight From Ashiya
TTITLE1=July - The Way
TTITLE2=Incredible String Band - Witches Hat
TTITLE3=Donovan - Celeste
TTITLE4=Ramases and Selket - Mind's Eye
TTITLE5=The End - Shades Of Orange
TTITLE6=Virgin Sleep - Love
TTITLE7=Barclay James Harvest - Pools Of Blue
TTITLE8=Tales Of Justine - Monday Morning
TTITLE9=Billy Nicholls - Girl From New York
TTITLE10=The Accent - Red Sky At Night
TTITLE11=Mick Softley - Am I The Red One
TTITLE12=Orange Bicycle - Laura's Garden
TTITLE13=Caleb - Baby Your Phrasing Is Bad
TTITLE14=Amazing Friendly Apple - Magician
TTITLE15=The Moles - We Are The Moles
TTITLE16=23rd Turnoff - Michael Angelo
TTITLE17=Bill Fay - Screams In The Ears
EXTD=
EXTT0=
EXTT1=
EXTT2=
EXTT3=
EXTT4=
EXTT5=
EXTT6=
EXTT7=
EXTT8=
EXTT9=
EXTT10=
EXTT11=
EXTT12=
EXTT13=
EXTT14=
EXTT15=
EXTT16=
EXTT17=
PLAYORDER=
